<svg width="23" height="23" viewBox="0 0 23 23" fill="none" xmlns="http://www.w3.org/2000/svg">
<path d="M12 15.869L15.4286 11.9048L15.9881 12.3929L11.631 17.4524L7.27381 12.3929L7.84524 11.9048L11.25 15.8571V6H12V15.869ZM7.39286 1.61905C8.74206 1.03968 10.1508 0.749999 11.619 0.749999C13.0952 0.749999 14.504 1.03968 15.8452 1.61905C17.1944 2.19047 18.3532 2.96032 19.3214 3.92857C20.2897 4.89682 21.0595 6.05555 21.631 7.40476C22.2103 8.74603 22.5 10.1548 22.5 11.631C22.5 13.0992 22.2103 14.5079 21.631 15.8571C21.0595 17.1984 20.2897 18.3532 19.3214 19.3214C18.3532 20.2897 17.1944 21.0635 15.8452 21.6429C14.504 22.2143 13.0952 22.5 11.619 22.5C10.1508 22.5 8.74206 22.2143 7.39286 21.6429C6.05159 21.0635 4.89683 20.2897 3.92857 19.3214C2.96032 18.3532 2.18651 17.1984 1.60714 15.8571C1.03571 14.5079 0.75 13.0992 0.75 11.631C0.75 10.1548 1.03571 8.74603 1.60714 7.40476C2.18651 6.05555 2.96032 4.89682 3.92857 3.92857C4.89683 2.96032 6.05159 2.19047 7.39286 1.61905ZM7.69048 20.9524C8.94445 21.4841 10.254 21.75 11.619 21.75C12.9921 21.75 14.3016 21.4841 15.5476 20.9524C16.8016 20.4127 17.881 19.6905 18.7857 18.7857C19.6905 17.881 20.4087 16.8056 20.9405 15.5595C21.4802 14.3056 21.75 12.996 21.75 11.631C21.75 10.2579 21.4802 8.94841 20.9405 7.70238C20.4087 6.44841 19.6905 5.36905 18.7857 4.46428C17.881 3.55952 16.8016 2.84127 15.5476 2.30952C14.3016 1.76984 12.9921 1.5 11.619 1.5C10.254 1.5 8.94445 1.76984 7.69048 2.30952C6.44444 2.84127 5.36905 3.55952 4.46429 4.46428C3.55952 5.36905 2.8373 6.44841 2.29762 7.70238C1.76587 8.94841 1.5 10.2579 1.5 11.631C1.5 12.996 1.76587 14.3056 2.29762 15.5595C2.8373 16.8056 3.55952 17.881 4.46429 18.7857C5.36905 19.6905 6.44444 20.4127 7.69048 20.9524Z" fill="#B2B2B2"/>
</svg>
