<svg width="19" height="18" viewBox="0 0 19 18" fill="none" xmlns="http://www.w3.org/2000/svg">
<path d="M1.46974 0.2185C1.62517 0.2185 1.75728 0.272899 1.86607 0.381696C1.97487 0.490492 2.02927 0.618716 2.02927 0.766368V17.2956C2.02927 17.4433 1.97487 17.5715 1.86607 17.6803C1.75728 17.7891 1.62517 17.8435 1.46974 17.8435H0.735367C0.587715 17.8435 0.459491 17.7891 0.350695 17.6803C0.241898 17.5715 0.1875 17.4433 0.1875 17.2956V0.766368C0.1875 0.665342 0.210814 0.575974 0.257441 0.498263C0.311839 0.41278 0.377894 0.346726 0.455605 0.300099C0.541088 0.2457 0.634342 0.2185 0.735367 0.2185H1.46974ZM6.61037 0.2185C6.76579 0.2185 6.8979 0.272899 7.0067 0.381696C7.11549 0.490492 7.16989 0.618716 7.16989 0.766368V17.2956C7.16989 17.4433 7.11549 17.5715 7.0067 17.6803C6.8979 17.7891 6.76579 17.8435 6.61037 17.8435H5.87599C5.72834 17.8435 5.60012 17.7891 5.49132 17.6803C5.38252 17.5715 5.32813 17.4433 5.32813 17.2956V0.766368C5.32813 0.618716 5.38252 0.490492 5.49132 0.381696C5.60012 0.272899 5.72834 0.2185 5.87599 0.2185H6.61037ZM18.2671 16.7827C18.3293 16.9226 18.3293 17.0664 18.2671 17.214C18.2127 17.3539 18.1195 17.4511 17.9874 17.5055L17.3113 17.8085C17.1714 17.8707 17.0315 17.8746 16.8916 17.8202C16.7517 17.7658 16.6507 17.6687 16.5885 17.5288L9.41964 1.4308C9.35747 1.29092 9.35359 1.15104 9.40799 1.01116C9.46239 0.871279 9.55952 0.770254 9.6994 0.708085L10.3638 0.405009C10.5037 0.34284 10.6436 0.338954 10.7835 0.393352C10.9311 0.44775 11.036 0.54489 11.0982 0.684771L18.2671 16.7827Z" fill="white"/>
</svg>
