<svg width="16" height="3" viewBox="0 0 16 3" fill="none" xmlns="http://www.w3.org/2000/svg">
<path d="M1.04539 0.389137C1.28398 0.150545 1.57093 0.0312488 1.90625 0.0312488C2.24157 0.0312488 2.52852 0.150545 2.76711 0.389137C3.0057 0.627728 3.125 0.914682 3.125 1.25C3.125 1.46925 3.07019 1.67237 2.96057 1.85937C2.85094 2.04638 2.70263 2.19469 2.51563 2.30431C2.32862 2.41394 2.1255 2.46875 1.90625 2.46875C1.57093 2.46875 1.28398 2.34945 1.04539 2.11086C0.806796 1.87227 0.6875 1.58532 0.6875 1.25C0.6875 0.914682 0.806796 0.627728 1.04539 0.389137ZM7.13914 0.389137C7.37773 0.150545 7.66468 0.0312488 8 0.0312488C8.33532 0.0312488 8.62227 0.150545 8.86086 0.389137C9.09946 0.627728 9.21875 0.914682 9.21875 1.25C9.21875 1.58532 9.09946 1.87227 8.86086 2.11086C8.62227 2.34945 8.33532 2.46875 8 2.46875C7.66468 2.46875 7.37773 2.34945 7.13914 2.11086C6.90055 1.87227 6.78125 1.58532 6.78125 1.25C6.78125 0.914682 6.90055 0.627728 7.13914 0.389137ZM13.2329 0.389137C13.4715 0.150545 13.7584 0.0312488 14.0938 0.0312488C14.4291 0.0312488 14.716 0.150545 14.9546 0.389137C15.1932 0.627728 15.3125 0.914682 15.3125 1.25C15.3125 1.58532 15.1932 1.87227 14.9546 2.11086C14.716 2.34945 14.4291 2.46875 14.0938 2.46875C13.7584 2.46875 13.4715 2.34945 13.2329 2.11086C12.9943 1.87227 12.875 1.58532 12.875 1.25C12.875 0.914682 12.9943 0.627728 13.2329 0.389137Z" fill="#B3B3B3"/>
</svg>
