<svg width="12" height="9" viewBox="0 0 12 9" fill="none" xmlns="http://www.w3.org/2000/svg">
<path d="M3.375 3.10119L3.29762 2.95238C2.96032 2.5754 2.55952 2.28175 2.09524 2.07143C1.63492 1.85714 1.16071 1.75 0.672619 1.75V0.999999C1.28373 0.999999 1.87302 1.13095 2.44048 1.39286C3.00794 1.65079 3.49405 2.01984 3.89881 2.5L3.375 3.10119ZM9 6.625V5.5L11.625 7L9 8.5V7.375C8.46429 7.375 7.94643 7.27976 7.44643 7.08929C6.9504 6.89881 6.51786 6.61905 6.14881 6.25L6.60119 5.64881C7.33135 6.2996 8.13095 6.625 9 6.625ZM9 2.125C8.51191 2.125 8.03571 2.23214 7.57143 2.44643C7.11111 2.65675 6.7123 2.9504 6.375 3.32738L3.82738 6.25C3.45833 6.73016 2.99405 7.10119 2.43452 7.3631C1.875 7.62103 1.2877 7.75 0.672619 7.75V7C1.16071 7 1.63492 6.89484 2.09524 6.68452C2.55952 6.47024 2.96032 6.1746 3.29762 5.79762L5.85119 2.875C6.22024 2.39484 6.68452 2.02579 7.24405 1.76786C7.80357 1.50595 8.38889 1.375 9 1.375V0.249999L11.625 1.75L9 3.25V2.125Z" fill="#57B560"/>
</svg>
