<svg width="13" height="13" viewBox="0 0 13 13" fill="none" xmlns="http://www.w3.org/2000/svg">
<path d="M3.97445 1.35565C4.69783 1.04563 5.45635 0.890624 6.25 0.890624C7.04365 0.890624 7.80217 1.04563 8.52555 1.35565C9.24893 1.66567 9.87103 2.08317 10.3919 2.60813C10.9168 3.12897 11.3343 3.75107 11.6443 4.47445C11.9544 5.19783 12.1094 5.95635 12.1094 6.75C12.1094 7.54365 11.9544 8.30217 11.6443 9.02555C11.3343 9.74893 10.9168 10.3731 10.3919 10.8981C9.87103 11.4189 9.24893 11.8343 8.52555 12.1443C7.80217 12.4544 7.04365 12.6094 6.25 12.6094C5.45635 12.6094 4.69783 12.4544 3.97445 12.1443C3.25107 11.8343 2.6269 11.4189 2.10193 10.8981C1.5811 10.3731 1.16567 9.74893 0.855655 9.02555C0.545635 8.30217 0.390625 7.54365 0.390625 6.75C0.390625 5.95635 0.545635 5.19783 0.855655 4.47445C1.16567 3.75107 1.5811 3.12897 2.10193 2.60813C2.6269 2.08317 3.25107 1.66567 3.97445 1.35565ZM6.25 10.278L8.67436 7.46925L8.07912 6.96081L6.64063 8.62872V3.625H5.85938V8.62252L4.42708 6.96081L3.83805 7.46925L6.25 10.278Z" fill="#57B560"/>
</svg>
