<svg width="22" height="21" viewBox="0 0 22 21" fill="none" xmlns="http://www.w3.org/2000/svg">
<path d="M12.0833 19.7887C11.7394 19.9435 11.3783 20.0208 11 20.0208C10.6217 20.0208 10.2563 19.9435 9.90377 19.7887C9.55986 19.6253 9.26753 19.3975 9.02679 19.1052L1.95933 10.8383C1.58102 10.4514 1.2543 10.0258 0.979167 9.56151C0.712633 9.09722 0.510582 8.60284 0.373016 8.07837C0.23545 7.5539 0.166667 7.01653 0.166667 6.46627C0.166667 5.64087 0.321429 4.84987 0.630953 4.09325C0.949074 3.32804 1.40046 2.65311 1.98512 2.06845C2.74173 1.32044 3.61442 0.795965 4.60317 0.495039C5.59193 0.194113 6.59358 0.146824 7.60814 0.353173C8.62269 0.559522 9.53836 1.00231 10.3552 1.68155C10.5357 1.83631 10.7507 1.91369 11 1.91369C11.2321 1.91369 11.4428 1.84061 11.6319 1.69444C12.122 1.28174 12.6551 0.955025 13.2312 0.714284C13.8158 0.473543 14.4048 0.327379 14.998 0.275792C15.5999 0.215607 16.1974 0.241401 16.7907 0.353173C17.3839 0.456348 17.9557 0.658398 18.506 0.959324C19.0562 1.25165 19.5592 1.62136 20.0149 2.06845C20.5995 2.65311 21.0466 3.32804 21.3562 4.09325C21.6743 4.84987 21.8333 5.64517 21.8333 6.47917C21.8333 7.30456 21.6743 8.09557 21.3562 8.85218C21.0466 9.6088 20.5995 10.2794 20.0149 10.8641L12.9732 19.1052C12.7325 19.3975 12.4358 19.6253 12.0833 19.7887ZM6.38294 1.32044C5.7209 1.32044 5.07176 1.4494 4.43552 1.70734C3.80787 1.96528 3.24901 2.34358 2.75893 2.84226C2.26885 3.32374 1.89484 3.87831 1.6369 4.50595C1.37897 5.125 1.25 5.77844 1.25 6.46627C1.25 6.92196 1.30589 7.36905 1.41766 7.80754C1.53803 8.23743 1.70999 8.64583 1.93353 9.03274C2.15708 9.41964 2.43221 9.77645 2.75893 10.1032L9.85218 18.3958C10.1531 18.7569 10.5357 18.9375 11 18.9375C11.4643 18.9375 11.8469 18.7569 12.1478 18.3958L19.2153 10.129C20.2384 9.10582 20.75 7.88492 20.75 6.46627C20.75 5.77844 20.621 5.125 20.3631 4.50595C20.1052 3.87831 19.7312 3.32374 19.2411 2.84226C18.3039 1.89649 17.1733 1.39352 15.8492 1.33333C14.5337 1.27315 13.3644 1.66865 12.3413 2.51984C12.2897 2.56283 12.2209 2.61442 12.1349 2.6746C12.0489 2.72619 11.8942 2.79497 11.6706 2.88095C11.4471 2.95833 11.2235 2.99702 11 2.99702C10.7679 2.99702 10.54 2.95833 10.3165 2.88095C10.0929 2.79497 9.93816 2.72189 9.85218 2.6617C9.7662 2.60152 9.69742 2.54993 9.64583 2.50694C8.70007 1.71594 7.61243 1.32044 6.38294 1.32044Z" fill="#B9BABB"/>
</svg>
