<svg width="20" height="22" viewBox="0 0 20 22" fill="none" xmlns="http://www.w3.org/2000/svg">
<path d="M15.3038 15.3765L19.2205 19.9576C19.306 20.0586 19.3409 20.1791 19.3254 20.3189C19.3176 20.4511 19.2632 20.5599 19.1622 20.6453L18.2297 21.438C18.1286 21.5235 18.0082 21.5623 17.8683 21.5546C17.7362 21.5468 17.6274 21.4885 17.5419 21.3797L13.6602 16.8452C13.5126 16.6665 13.3261 16.5577 13.1007 16.5188C12.8753 16.4722 12.6616 16.5033 12.4596 16.6121C11.2317 17.2804 9.9184 17.6146 8.51959 17.6146C7.22958 17.6146 5.99397 17.327 4.81275 16.752C3.6393 16.1769 2.64848 15.3454 1.84028 14.2574C1.36624 13.6202 0.989335 12.9325 0.709573 12.1942C0.437583 11.4482 0.278274 10.6905 0.231647 9.92113C0.18502 9.15179 0.231647 8.39021 0.371528 7.63641C0.511409 6.8826 0.763972 6.156 1.12922 5.4566C1.49446 4.74942 1.95296 4.11219 2.50471 3.54489C3.31291 2.69783 4.23768 2.05671 5.27902 1.62153C6.32813 1.18634 7.40832 0.968749 8.51959 0.968749C9.71635 0.968749 10.8665 1.21743 11.97 1.71478C13.0813 2.21213 14.041 2.93485 14.8492 3.88294C15.6807 4.8621 16.2519 5.96172 16.5627 7.18179C16.8814 8.40187 16.9241 9.61805 16.691 10.8304C16.4656 12.0427 15.9877 13.1539 15.2572 14.1642C15.1251 14.3429 15.0629 14.545 15.0707 14.7703C15.0785 14.9957 15.1562 15.1978 15.3038 15.3765ZM14.6161 9.76959C14.6549 9.36549 14.6472 8.96528 14.5928 8.56895C14.5461 8.16485 14.4606 7.77629 14.3363 7.40327C14.2197 7.02249 14.0604 6.65724 13.8584 6.30754C13.6641 5.95784 13.4349 5.62756 13.1706 5.31672C12.5878 4.63285 11.8884 4.10441 11.0724 3.7314C10.2642 3.35838 9.41328 3.17187 8.51959 3.17187C7.7891 3.17187 7.08193 3.3001 6.39807 3.55655C5.7142 3.80522 5.0964 4.16658 4.54464 4.64062C4.29597 4.85045 4.06672 5.07969 3.8569 5.32837C3.64707 5.56928 3.46057 5.82573 3.29737 6.09772C3.13418 6.36971 2.99041 6.65336 2.86607 6.94866C2.74173 7.23619 2.64071 7.53927 2.563 7.85789C2.49306 8.16873 2.44643 8.48735 2.42312 8.81374C2.37649 9.34995 2.3998 9.88227 2.49306 10.4107C2.59408 10.9392 2.75728 11.4443 2.98264 11.9261C3.21577 12.4079 3.51108 12.8547 3.86855 13.2666C4.45139 13.9505 5.14691 14.4789 5.95511 14.8519C6.77108 15.2249 7.62591 15.4115 8.51959 15.4115C9.25008 15.4115 9.95726 15.2871 10.6411 15.0384C11.325 14.782 11.9428 14.4167 12.4945 13.9427C13.1162 13.4143 13.6097 12.7926 13.975 12.0776C14.3402 11.3549 14.5539 10.5856 14.6161 9.76959Z" fill="white"/>
</svg>
