<svg width="22" height="22" viewBox="0 0 22 22" fill="none" xmlns="http://www.w3.org/2000/svg">
<path d="M20.1667 12.5169C20.6396 12.7206 20.9742 13.0516 21.1706 13.5099C21.3671 13.961 21.3707 14.4157 21.1815 14.874L20.8978 15.5397C20.7159 15.9907 20.3958 16.3108 19.9375 16.5C19.4864 16.6892 19.0317 16.6892 18.5734 16.5C18.2533 16.3909 17.9368 16.3727 17.624 16.4454C17.3185 16.5109 17.0529 16.6528 16.8274 16.871C16.6091 17.0966 16.4636 17.3621 16.3909 17.6677C16.3254 17.9732 16.3436 18.2715 16.4454 18.5625C16.6346 19.0427 16.6382 19.5119 16.4564 19.9702C16.2745 20.4286 15.9544 20.7523 15.496 20.9415L14.8194 21.2252C14.6012 21.3125 14.3757 21.3562 14.1429 21.3562C13.7864 21.3562 13.4554 21.2579 13.1498 21.0615C12.8515 20.8651 12.6333 20.5959 12.495 20.254C12.4005 20.0575 12.2731 19.8866 12.1131 19.7411C11.9603 19.5956 11.7857 19.4828 11.5893 19.4028C11.4001 19.3228 11.2037 19.2827 11 19.2827C10.6872 19.2827 10.3962 19.3664 10.127 19.5337C9.8578 19.7011 9.65774 19.9266 9.52679 20.2103C9.33036 20.6832 9.00298 21.0179 8.54464 21.2143C8.08631 21.4107 7.63161 21.4144 7.18056 21.2252L6.50397 20.9415C6.05291 20.7523 5.7328 20.4322 5.54365 19.9812C5.3545 19.5301 5.3545 19.0754 5.54365 18.6171C5.65278 18.297 5.6746 17.9841 5.60913 17.6786C5.54365 17.3657 5.39815 17.0966 5.17262 16.871C4.95437 16.6528 4.68882 16.5073 4.37599 16.4345C4.07044 16.3618 3.77216 16.3763 3.48115 16.4782C2.99372 16.6819 2.52083 16.6892 2.0625 16.5C1.61144 16.3108 1.29134 15.9907 1.10218 15.5397L0.818452 14.8631C0.636574 14.412 0.636574 13.961 0.818452 13.5099C1.00761 13.0516 1.33135 12.7278 1.78968 12.5387C2.08796 12.3932 2.3244 12.1858 2.49901 11.9167C2.67361 11.6475 2.76091 11.3565 2.76091 11.0436C2.76091 10.7308 2.67725 10.4398 2.50992 10.1706C2.34259 9.90145 2.11706 9.70139 1.83333 9.57044C1.36045 9.36673 1.02579 9.03935 0.829365 8.58829C0.640212 8.12996 0.636574 7.67526 0.818452 7.22421L1.10218 6.54762C1.29134 6.09656 1.61144 5.77645 2.0625 5.5873C2.52083 5.39815 2.97553 5.39815 3.42659 5.5873C3.74669 5.69643 4.05952 5.71825 4.36508 5.65278C4.67791 5.5873 4.94709 5.4418 5.17262 5.21627C5.39087 4.99801 5.53274 4.73611 5.59821 4.43055C5.67097 4.11772 5.65642 3.81581 5.55456 3.5248C5.35814 3.03737 5.3545 2.56812 5.54365 2.11706C5.7328 1.65873 6.05291 1.33499 6.50397 1.14583L7.18056 0.862103C7.63161 0.680224 8.08267 0.683862 8.53373 0.873015C8.99206 1.06217 9.31581 1.38227 9.50496 1.83333C9.65046 2.13161 9.8578 2.36805 10.127 2.54266C10.3962 2.71726 10.6872 2.80456 11 2.80456C11.3128 2.80456 11.6038 2.7209 11.873 2.55357C12.1422 2.38624 12.3423 2.16071 12.4732 1.87698C12.6769 1.4041 13.0043 1.07308 13.4554 0.883928C13.9137 0.687499 14.3684 0.683862 14.8194 0.873015L15.496 1.14583C15.787 1.26951 16.0308 1.45866 16.2272 1.71329C16.4236 1.96792 16.54 2.24801 16.5764 2.55357C16.6128 2.85185 16.5728 3.15741 16.4564 3.47024C16.3472 3.79034 16.3254 4.10681 16.3909 4.41964C16.4564 4.7252 16.6019 4.99074 16.8274 5.21627C17.0456 5.43452 17.3075 5.58003 17.6131 5.65278C17.9259 5.71825 18.2278 5.7037 18.5189 5.60913L18.8353 6.22024L18.5734 5.5873C19.0245 5.39815 19.4755 5.39815 19.9266 5.5873C20.3849 5.77645 20.7087 6.09656 20.8978 6.54762L21.1815 7.22421C21.3634 7.67526 21.3598 8.12996 21.1706 8.58829C20.9888 9.03935 20.6687 9.35946 20.2103 9.54861C19.912 9.69411 19.6756 9.90145 19.501 10.1706C19.3264 10.4398 19.2391 10.7308 19.2391 11.0436C19.2391 11.3565 19.3228 11.6475 19.4901 11.9167C19.6574 12.1858 19.8829 12.3859 20.1667 12.5169ZM19.6319 15.0159L19.9048 14.3393C19.9484 14.2374 19.9484 14.1356 19.9048 14.0337C19.8611 13.9246 19.7884 13.8519 19.6865 13.8155L19.5556 13.75C19.0463 13.5026 18.6353 13.1353 18.3224 12.6478C18.0169 12.1531 17.8641 11.6184 17.8641 11.0436C17.8641 10.4689 18.0169 9.93783 18.3224 9.4504C18.6353 8.95569 19.0499 8.58466 19.5665 8.3373C19.7192 8.27182 19.8247 8.18452 19.8829 8.0754C19.9484 7.96627 19.9557 7.85714 19.9048 7.74802L19.6319 7.07143C19.5883 6.96958 19.5119 6.89682 19.4028 6.85317C19.3009 6.80952 19.1991 6.80952 19.0972 6.85317L18.9772 6.89682C18.4315 7.08598 17.875 7.11508 17.3075 6.98413C16.7474 6.85317 16.2636 6.58763 15.8562 6.1875C15.4487 5.78009 15.1796 5.29629 15.0486 4.73611C14.9177 4.16865 14.9468 3.6121 15.1359 3.06647L15.1905 2.93552C15.2269 2.83366 15.2232 2.73181 15.1796 2.62996C15.1432 2.52811 15.0741 2.45536 14.9722 2.41171L14.2956 2.13889C14.1938 2.09524 14.0919 2.09524 13.9901 2.13889C13.8882 2.18254 13.8155 2.25529 13.7718 2.35714L13.7173 2.48809C13.4626 2.99735 13.088 3.4084 12.5933 3.72123C12.1058 4.02678 11.5747 4.17956 11 4.17956C10.4325 4.17956 9.90146 4.02678 9.40675 3.72123C8.91931 3.4084 8.54828 2.99735 8.29365 2.48809C8.22817 2.32804 8.14087 2.21891 8.03175 2.16071C7.92262 2.10251 7.81349 2.09524 7.70437 2.13889L7.02778 2.41171C6.92593 2.45536 6.85318 2.53174 6.80952 2.64087C6.76587 2.74272 6.76587 2.84458 6.80952 2.94643C7.0205 3.55754 7.06415 4.15046 6.94048 4.7252C6.8168 5.29266 6.55126 5.78009 6.14385 6.1875C5.73644 6.59491 5.24901 6.86409 4.68155 6.99504C4.12136 7.12599 3.57209 7.09689 3.03373 6.90774L2.89187 6.85317C2.82639 6.83135 2.75728 6.82407 2.68452 6.83135C2.61905 6.83862 2.55721 6.86409 2.49901 6.90774C2.44081 6.95139 2.39716 7.00595 2.36806 7.07143L2.09524 7.74802C2.05159 7.84987 2.05159 7.95172 2.09524 8.05357C2.13889 8.15542 2.21164 8.22817 2.31349 8.27182L2.44444 8.32639C2.69907 8.45007 2.92824 8.61012 3.13194 8.80655C3.34292 8.9957 3.52116 9.21032 3.66667 9.4504C3.81944 9.6832 3.93585 9.93783 4.01587 10.2143C4.0959 10.4835 4.13591 10.7599 4.13591 11.0436C4.13591 11.6111 3.9795 12.1422 3.66667 12.6369C3.36111 13.1243 2.9537 13.4954 2.44444 13.75C2.28439 13.8155 2.17526 13.9028 2.11706 14.0119C2.05886 14.121 2.05159 14.2302 2.09524 14.3393L2.36806 15.0159C2.41171 15.1177 2.48446 15.1905 2.58631 15.2341C2.69544 15.2778 2.80093 15.2778 2.90278 15.2341C3.27381 15.1032 3.64848 15.0377 4.02679 15.0377C4.86343 15.0377 5.56911 15.3251 6.14385 15.8998C6.55126 16.3072 6.82044 16.7946 6.95139 17.3621C7.08234 17.9223 7.05324 18.4716 6.86409 19.0099L6.80952 19.1409C6.77315 19.25 6.77315 19.3555 6.80952 19.4573C6.85318 19.5592 6.92593 19.6319 7.02778 19.6756L7.70437 19.9484C7.80622 19.9921 7.90807 19.9921 8.00992 19.9484C8.11177 19.9048 8.18452 19.832 8.22818 19.7302L8.28274 19.5992C8.53737 19.0899 8.9084 18.6825 9.39583 18.377C9.89054 18.0642 10.4216 17.9077 10.9891 17.9077C11.5638 17.9077 12.0949 18.0642 12.5823 18.377C13.0771 18.6825 13.4517 19.0899 13.7063 19.5992C13.7718 19.7593 13.8591 19.8684 13.9683 19.9266C14.0774 19.9848 14.1865 19.9921 14.2956 19.9484L14.9722 19.6756C15.0741 19.6319 15.1468 19.5592 15.1905 19.4573C15.2341 19.3482 15.2341 19.2427 15.1905 19.1409C14.9868 18.5298 14.9431 17.9405 15.0595 17.373C15.1832 16.7983 15.4487 16.3072 15.8562 15.8998C16.2636 15.4924 16.7474 15.2232 17.3075 15.0923C17.875 14.9613 18.4279 14.9904 18.9663 15.1796L19.0972 15.2341C19.1991 15.2705 19.3009 15.2705 19.4028 15.2341C19.5119 15.1905 19.5883 15.1177 19.6319 15.0159ZM8.0754 8.12996C8.88294 7.32242 9.8578 6.91865 11 6.91865C12.1422 6.91865 13.1134 7.32242 13.9137 8.12996C14.7212 8.93022 15.125 9.90145 15.125 11.0436C15.125 12.1858 14.7212 13.1607 13.9137 13.9683C13.1134 14.7685 12.1422 15.1687 11 15.1687C9.8578 15.1687 8.88294 14.7685 8.0754 13.9683C7.27513 13.1607 6.875 12.1858 6.875 11.0436C6.875 9.90145 7.27513 8.93022 8.0754 8.12996ZM9.05754 12.9861C9.5959 13.5245 10.2434 13.7937 11 13.7937C11.7566 13.7937 12.4041 13.5245 12.9425 12.9861C13.4808 12.4478 13.75 11.8003 13.75 11.0436C13.75 10.287 13.4808 9.63955 12.9425 9.10119C12.4041 8.56283 11.7566 8.29365 11 8.29365C10.2434 8.29365 9.5959 8.56283 9.05754 9.10119C8.51918 9.63955 8.25 10.287 8.25 11.0436C8.25 11.8003 8.51918 12.4478 9.05754 12.9861Z" fill="white"/>
</svg>
